<?xml version="1.0" encoding="UTF-8"?><svg id="Layer_1" xmlns="http://www.w3.org/2000/svg" viewBox="0 0 378.6 438.27"><defs><style>.cls-1{fill:#fff;}.cls-2{fill:#e6d9d3;}.cls-3{fill:#655d37;}.cls-4{fill:#cf8a4c;}.cls-5{fill:#c18b87;}.cls-6{fill:#231f20;}.cls-7{fill:#453636;}.cls-8,.cls-9{fill:#27141a;}.cls-9,.cls-10{opacity:.2;}</style></defs><g id="r_tree"><path class="cls-8" d="M289.06,248.59c-1.69,31.29,.22,62.82,5.66,93.21,.96,5.39,2.99,11.84,7.25,12.15,2.69,.2,5.17-2.45,6.37-5.62s1.41-6.79,1.57-10.3c1.54-33.79,1.14-68.68-8.84-99.67-1.39-4.32-4.41-9.32-7.76-7.45-1.08,.6-1.87,1.84-2.54,3.1-2.14,4.07-1.57,9.69-1.72,14.58"/><path class="cls-3" d="M266.72,16.39c-4.8,10.96-10.19,35.9-16.89,46.44-7.97,12.54-16.64,25.44-18.6,40.18-.55,4.14-.34,8.78,2.45,11.89,3.62,4.04,10.02,3.87,15.21,2.3,7.95-2.41,15.51-7.39,24.71-1.11,4.58,9.99-3.55,13.01-9.88,15.37-18.14,6.75-33.37,20.97-41.33,38.61-3.47,7.68-4.86,18.28,1.98,23.18,4.73,3.39,11.35,2.3,16.63-.13,8.25-3.79,15.25-10.5,26.11-7.74,.19,.05,.37,.13,.53,.24,10.83,7.75,3.07,17.82-3.65,24.52-18.04,17.98-34.67,39.75-36.78,65.13-.19,2.29-.23,4.71,.85,6.73,1.12,2.09,3.28,3.43,5.51,4.24,7.07,2.58,15.02,.67,21.87-2.43,6.86-3.1,13.19-7.37,20.31-9.81,22.08-7.57,45.57,3.68,67.8,10.8,7.73,2.48,17.08,4.17,23.25-1.12,3.25-2.78,4.89-7.01,5.88-11.17,1.8-7.57,1.68-16.1-2.78-22.48-4.81-6.89-13.54-9.8-21.83-11.17-8.29-1.37-16.93-1.68-24.57-5.17-3-1.37-5.92-3.36-7.34-6.34-1.67-3.51-.93-7.76,.83-11.22,6.43-12.69,23.45-15.67,37.52-13.56,8.79,1.32,18.86,3.75,23.77-9.12,.23-.61,.34-1.28,.31-1.93-.73-15.82-13.26-24.57-25.84-30.41-9.43-4.38-19.52-7.75-27.7-14.16-1.89-1.48-3.84-3.58-3.39-5.94,.24-1.28,1.16-2.33,2.18-3.15,11.92-9.62,33.46,6.84,43.03-8.35,.16-.25,.3-.51,.42-.78,5.05-11.08,.08-23.74-8.48-31.62-9.66-8.89-34.78-14.65-38.86-17.37-13.21-8.89,9.52-9.28,14.81-14.36,2.92-2.81,3.22-7.59,1.62-11.32s-4.73-6.57-8.01-8.97c-16.39-12-39.48-16.88-46.72-37.2-3.92-10.48-5.79-13.14-14.93,8.5"/></g><g id="ghost"><g id="Shadow" class="cls-10"><path class="cls-8" d="M201.42,173.58c-18.24-12.22-43.62-2.8-54.92,13.93-11.3,16.73-11.19,42.74-9.44,62.86,1.75,20.11,5.48,40.52,1.5,60.31-4.29,21.32-17.37,40.84-17.3,62.59,0,1.62,.1,3.3,.85,4.73,2.14,4.11,8.23,3.99,12.36,1.88s7.62-5.6,12.14-6.63c11.42-2.61,21.73,11.53,33.15,8.92,4.34-.99,7.78-4.28,11.91-5.95,14.86-6.01,29.87,10.25,45.9,10.08,1.37-.01,2.81-.18,3.94-.96,1.46-1.01,2.09-2.84,2.49-4.58,5.1-22.51-14.86-43.2-16.75-66.21-1.14-13.93,4.44-27.42,7.26-41.11,7.42-35.96-.97-76.37-33.07-99.87"/></g><g id="Body"><path class="cls-1" d="M201.42,167.19c-18.24-12.22-43.62-2.8-54.92,13.93-11.3,16.73-11.19,42.74-9.44,62.86,1.75,20.11,5.48,40.52,1.5,60.31-4.29,21.32-17.37,40.84-17.3,62.59,0,1.62,.1,3.3,.85,4.73,2.14,4.11,8.23,3.99,12.36,1.88s7.62-5.6,12.14-6.63c11.42-2.61,21.73,11.53,33.15,8.92,4.34-.99,7.78-4.28,11.91-5.95,14.86-6.01,29.87,10.25,45.9,10.08,1.37-.01,2.81-.18,3.94-.96,1.46-1.01,2.09-2.84,2.49-4.58,5.1-22.51-14.86-43.2-16.75-66.21-1.14-13.93,4.44-27.42,7.26-41.11,7.42-35.96-.97-76.37-33.07-99.87"/></g><g id="L_eye"><ellipse class="cls-6" cx="165.1" cy="222.08" rx="6.21" ry="9.31"/><path class="cls-6" d="M164.16,213.49c-.13-.02-.25-.05-.37-.09-.05-.02-.1-.03-.15-.05-.18-.06,.1,.05,0,0-.21-.1-.41-.21-.6-.35-.09-.06-.11-.09-.01,0-.05-.04-.1-.08-.15-.13-.09-.08-.17-.16-.25-.24-.04-.05-.09-.1-.13-.15-.02-.02-.12-.15-.04-.05,.09,.11-.04-.06-.06-.09-.04-.05-.07-.11-.11-.16-.07-.11-.13-.21-.18-.32-.03-.05-.05-.11-.08-.16-.12-.25,.03,.1-.02-.05-.09-.27-.18-.53-.25-.81-.03-.13-.05-.26-.07-.4-.02-.12,.01,.15,0-.05,0-.06-.01-.12-.02-.18-.02-.3-.02-.6-.01-.9,.02-.52-.47-1.02-1-1-.56,.03-.98,.44-1,1-.05,1.35,.2,2.8,.95,3.95,.69,1.06,1.77,1.92,3.03,2.16,.51,.1,1.1-.14,1.23-.7,.11-.49-.15-1.12-.7-1.23h0Z"/><path class="cls-6" d="M161.82,216.34c-.14,.01-.28,.02-.42,.02-.03,0-.29-.01-.13,0s-.05-.01-.09-.02c-.14-.03-.27-.06-.4-.11-.06-.02-.13-.03-.18-.07,.2,.13,0,0-.04-.02-.13-.06-.25-.13-.37-.21-.05-.03-.11-.07-.16-.11-.05-.03-.24-.13-.04-.03-.23-.12-.44-.4-.61-.59-.02-.02-.15-.18-.07-.08s-.06-.08-.07-.1c-.1-.14-.19-.28-.28-.43-.16-.27-.3-.54-.43-.83-.03-.06-.06-.13-.09-.19-.05-.11,.06,.14-.02-.04-.06-.15-.12-.29-.17-.44-.12-.31-.23-.62-.33-.92-.17-.49-.69-.87-1.23-.7-.49,.16-.88,.7-.7,1.23,.5,1.41,1.02,2.84,2.03,3.97,.93,1.05,2.37,1.81,3.8,1.67,.52-.05,1.03-.42,1-1-.02-.5-.44-1.06-1-1h0Z"/><ellipse class="cls-1" cx="161.79" cy="222.08" rx="3.3" ry="5.06"/></g><g id="R_eye"><ellipse class="cls-6" cx="206.08" cy="222.08" rx="6.21" ry="9.31"/><path class="cls-6" d="M208,215.49c1.26-.24,2.34-1.1,3.03-2.16,.75-1.15,1.01-2.59,.95-3.95-.02-.52-.45-1.02-1-1-.52,.02-1.02,.44-1,1,.01,.29,.01,.57,0,.86,0,.07-.01,.15-.02,.22,0,.1-.01,.1,0,0-.02,.13-.04,.27-.07,.4-.06,.28-.14,.55-.24,.82-.06,.18,.03-.05-.02,.05-.03,.05-.05,.11-.08,.16-.06,.12-.13,.25-.2,.36-.06,.1-.13,.19-.2,.29,.05-.06,.09-.1,.01-.02-.04,.05-.08,.1-.13,.15-.08,.09-.16,.17-.25,.25-.05,.04-.1,.08-.15,.13-.09,.08,.14-.1-.01,.01-.19,.13-.39,.25-.6,.35s.12-.04,0,0c-.06,.02-.12,.04-.18,.06-.12,.04-.25,.07-.37,.09-.51,.1-.86,.74-.7,1.23,.18,.55,.68,.8,1.23,.7h0Z"/><path class="cls-6" d="M209.8,218.4c1.43,.15,2.87-.62,3.8-1.67,1.01-1.14,1.53-2.56,2.03-3.97,.17-.49-.2-1.12-.7-1.23-.56-.13-1.04,.17-1.23,.7-.1,.3-.21,.59-.32,.88-.06,.15-.11,.29-.17,.44-.03,.08-.07,.17-.01,.04-.03,.08-.07,.16-.1,.23-.13,.28-.27,.56-.43,.83-.08,.13-.16,.26-.25,.39-.04,.06-.08,.12-.12,.17,.13-.17-.03,.03-.05,.05-.08,.1-.17,.19-.26,.28-.07,.07-.24,.29-.35,.31l.08-.06s-.06,.05-.09,.07c-.05,.04-.11,.07-.16,.11-.13,.08-.26,.16-.4,.23-.03,.01-.22,.1-.09,.04s-.06,.02-.09,.03c-.13,.05-.26,.08-.4,.11-.06,.01-.12,.03-.18,.03,.26,0,.03,0-.03,0-.15,0-.3,0-.45-.02-.52-.05-1.02,.5-1,1,.03,.59,.44,.94,1,1h0Z"/><ellipse class="cls-1" cx="202.98" cy="222.08" rx="3.3" ry="5.06"/></g><g id="Mouth"><path class="cls-6" d="M178.59,241.22c-.23,1.86,.09,3.71,.83,5.42,.67,1.55,1.69,3.11,3.17,4.01,1.56,.95,3.55,1,5.25,.41s3.08-1.82,3.91-3.45c1.01-1.98,1.66-4.18,1.35-6.41-.07-.54-.76-.83-1.23-.7-.58,.16-.77,.69-.7,1.23,.25,1.81-.53,3.92-1.48,5.45s-2.58,2.32-4.32,2.26-2.94-1.37-3.75-2.83c-.92-1.66-1.27-3.51-1.04-5.39,.07-.54-.51-1-1-1-.6,0-.93,.46-1,1h0Z"/></g><ellipse id="L" class="cls-5" cx="158.89" cy="240.25" rx="7.23" ry="5.75"/><ellipse id="R" class="cls-5" cx="212.29" cy="240.25" rx="7.23" ry="5.75"/><g id="Candy_bad"><g id="Pumpkin_shadow" class="cls-10"><path class="cls-8" d="M165.23,333.28c-2.4,.76-4,3.7-5.08,6.04s-1.45,4.44-2.14,6.94c-.92,3.31-1.28,8.09-.47,11.23s3.01,5.16,5.93,6.36,7.02-.18,8.43-3.08c.88,3.6,4.2,6.6,7.77,6.27,3.57-.33,7.51-2.78,7.76-6.49,1.64,1.64,2.64,2.35,4.81,3.07s4.8,.61,6.93-.89c1.28-.9,2.76-3.01,3.24-4.54,2.43-7.65,1.54-15.29-1.54-22.68"/></g><g id="Pumpkin_bag"><path class="cls-4" d="M165.23,331.06c-2.4,.76-4,3.7-5.08,6.04s-1.45,4.44-2.14,6.94c-.92,3.31-1.28,8.09-.47,11.23s3.01,5.16,5.93,6.36,7.02-.18,8.43-3.08c.88,3.6,4.2,6.6,7.77,6.27,3.57-.33,7.51-2.78,7.76-6.49,1.64,1.64,2.64,2.35,4.81,3.07s4.8,.61,6.93-.89c1.28-.9,2.76-3.01,3.24-4.54,2.43-7.65,1.54-15.29-1.54-22.68"/></g><g id="Handle_shadow" class="cls-10"><path class="cls-8" d="M196.48,327.65c-.98-6.26-2.28-15.12-8.95-17.88s-14.36,1.34-18.17,7.06c-2.34,3.51-3.97,7.43-4.27,11.66l.93-1.62c-1.73,.74-3.7,1.9-4.12,3.89-.31,1.44,.37,2.8,1.42,3.76,2.73,2.49,7.07,3.28,10.59,3.79,5.09,.74,10.25,.76,15.33,.03,3.35-.48,7.38-1.24,9.97-3.61,1.15-1.05,1.79-2.59,1.34-4.14-.69-2.34-3.3-3.47-5.37-4.26-2.26-.85-3.24,2.77-1,3.62,.9,.34,2.43,1.03,2.78,1.69,.08,.15,.07-.06-.03,.09,.2-.29-.03,.04-.11,.12,.21-.21-.12,.11-.19,.17-.17,.14-.12,.12-.37,.29-2.21,1.52-5.23,2.02-7.82,2.39-3.77,.54-7.64,.57-11.43,.24-3.08-.27-6.34-.78-9.2-2.01-.58-.25-1.2-.55-1.71-.94-.21-.16-.52-.53-.55-.57-.13-.17,.04-.04,0-.03,.3-.05-.38,.31,.13,.02,.76-.42,1.41-.94,2.24-1.3,.62-.26,.89-1.01,.93-1.62,.27-3.84,2.06-7.57,4.35-10.62,2.04-2.72,5.21-4.8,8.63-5.17,1.82-.2,3.82,.04,5.36,1.09,1.36,.93,2.27,2.39,2.94,3.86,1.56,3.39,2.16,7.33,2.74,10.99,.16,1,1.41,1.56,2.31,1.31,1.07-.3,1.47-1.3,1.31-2.31Z"/></g><path id="Bag_hole" class="cls-7" d="M200.95,333.72c0,3.07-8.51,5.55-19.02,5.55s-19.86-2.65-19.86-5.71,9.36-5.4,19.86-5.4,19.02,2.49,19.02,5.55Z"/><g id="Handle"><path class="cls-7" d="M165.7,332.64c-.61-4.17,.79-8.3,2.87-11.87s4.59-6.47,8.24-8.32c3.34-1.69,7.68-2.37,11.23-.89s5.23,5.19,6.3,8.59c1.33,4.24,2.2,8.72,2.63,13.14,.1,1.01,.79,1.88,1.88,1.88,.94,0,1.98-.86,1.88-1.88-.46-4.63-1.31-9.32-2.66-13.78-1.27-4.2-3.37-8.6-7.37-10.81-4.26-2.36-9.72-2.04-14.11-.23s-7.86,5.1-10.47,9.15c-3.1,4.82-4.87,10.28-4.02,16.03,.15,1,1.42,1.56,2.31,1.31,1.07-.3,1.46-1.3,1.31-2.31h0Z"/></g><g id="Face"><ellipse id="L-2" class="cls-2" cx="169.44" cy="349.41" rx="1.83" ry="1.46"/><ellipse id="R-2" class="cls-2" cx="191.46" cy="349.41" rx="1.83" ry="1.46"/><g id="L_eye-2"><ellipse class="cls-6" cx="174.6" cy="345.42" rx="2.28" ry="3.43"/><ellipse class="cls-1" cx="174.16" cy="344.5" rx=".85" ry="1.3"/></g><g id="R_eye-2"><ellipse class="cls-6" cx="186.04" cy="345.42" rx="2.28" ry="3.43"/><ellipse class="cls-1" cx="185.65" cy="344.5" rx=".85" ry="1.3"/></g><g id="Mouth-2"><path class="cls-6" d="M171.27,352.4h18.36s-7.32,11.03-18.36,0Z"/><rect class="cls-4" x="182.87" y="351.62" width="1.8" height="2.73"/><rect class="cls-4" x="179.99" y="355.93" width="1.8" height="2.73"/><rect class="cls-4" x="176.65" y="351.62" width="1.8" height="2.73"/></g></g></g><g id="R_arm"><path class="cls-1" d="M203.23,297.13c-3.94,5.6-6.98,11.87-8.97,18.48-.58,1.94-1.04,4.18,0,5.9,1.42,2.31,4.75,2.3,7.19,1.25,4.69-2,7.88-6.48,10.84-10.74"/><path class="cls-2" d="M202.36,296.62c-2.26,3.24-4.23,6.66-5.87,10.25-1.55,3.4-3.23,7.16-3.76,10.89-.43,3.05,.94,5.96,4.16,6.55s6.11-.9,8.5-2.75c3.17-2.45,5.5-5.78,7.76-9.04,.74-1.06-1-2.06-1.73-1.01-2.22,3.21-4.54,6.58-7.77,8.86-2.15,1.51-7.3,3.79-8.77,.15-.75-1.86,.15-4.13,.73-5.92,.65-2.01,1.4-3.99,2.25-5.93,1.71-3.88,3.8-7.58,6.23-11.05,.74-1.06-.99-2.06-1.73-1.01h0Z"/></g><g id="L_arm"><path class="cls-1" d="M161.81,297.13c3.94,5.6,6.98,11.87,8.97,18.48,.58,1.94,1.04,4.18,0,5.9-1.42,2.31-4.75,2.3-7.19,1.25-4.69-2-7.88-6.48-10.84-10.74"/><path class="cls-2" d="M160.95,297.63c2.43,3.48,4.52,7.17,6.23,11.05,.85,1.93,1.6,3.92,2.25,5.93,.58,1.79,1.48,4.06,.73,5.92-1.47,3.64-6.62,1.36-8.77-.15-3.23-2.27-5.55-5.66-7.77-8.86-.73-1.05-2.46-.05-1.73,1.01,2.02,2.91,4.08,5.88,6.76,8.22,2.31,2.02,5.27,3.83,8.44,3.69s5.3-2.26,5.31-5.39c0-1.84-.61-3.66-1.19-5.39-.6-1.82-1.29-3.62-2.05-5.38-1.76-4.1-3.94-8-6.49-11.66-.73-1.05-2.47-.05-1.73,1.01h0Z"/></g><path id="Hat_shadow" class="cls-9" d="M156.46,170.78c-3.91,2.93-7.32,6.43-9.96,10.34-3.2,4.74-5.48,10.22-7.07,16.09,12.86,2,28.96,3.19,46.44,3.19,15.21,0,29.36-.9,41.26-2.45-5.13-10.46-12.38-19.97-21.99-27.86-6.16-.32-12.61-.5-19.27-.5-10.42,0-20.35,.42-29.4,1.19Z"/><path id="Witch_Hat" class="cls-8" d="M219.07,168.87c-.56-1.47-1.24-2.91-1.92-4.28-12.51-25.15-27.26-49.18-44.01-71.72-6.62,10.05-9.96,21.86-13.19,33.45-3.52,12.58-7.03,25.17-10.55,37.75-.49,1.76-.98,3.53-1.45,5.31-22.92,2.66-38.38,7.65-38.38,13.37,0,8.51,34.16,15.4,76.29,15.4s76.29-6.9,76.29-15.4c0-6.1-17.58-11.38-43.08-13.87Z"/></g><g id="l_tree"><path class="cls-8" d="M82.69,343.83c2.82,28.82,2.76,57.97-.17,86.19-.52,5.01-1.84,11.02-5.24,11.45-2.15,.27-4.25-2.09-5.37-4.98-1.11-2.89-1.44-6.22-1.74-9.45-2.81-31.12-4.13-63.34,2.42-92.25,.91-4.03,3.1-8.74,5.87-7.13,.89,.52,1.58,1.63,2.18,2.78,1.91,3.69,1.71,8.89,2.06,13.39"/><path class="cls-3" d="M67.07,147.26c5.36,9.45,13.18,31.6,19.99,40.44,8.1,10.53,16.81,21.3,20.46,34.53,1.03,3.72,1.51,7.97-.26,11.14-2.3,4.1-7.4,4.69-11.74,3.85-6.65-1.28-13.35-4.96-19.75,1.84-2.22,9.65,4.66,11.47,10.02,12.89,15.35,4.06,29.44,15.29,38.26,30.48,3.84,6.61,6.45,16.12,1.72,21.39-3.27,3.64-8.67,3.41-13.21,1.81-7.08-2.51-13.59-7.82-21.81-4.05-.14,.06-.27,.16-.38,.28-7.49,8.32,.09,16.63,6.37,21.96,16.86,14.33,33.14,32.28,38.42,55.21,.48,2.06,.85,4.27,.28,6.24-.59,2.04-2.12,3.51-3.77,4.51-5.24,3.17-11.81,2.35-17.69,.31-5.88-2.04-11.51-5.21-17.5-6.61-18.59-4.36-35.62,8.62-52.24,17.69-5.78,3.15-12.95,5.78-18.6,1.67-2.97-2.17-4.87-5.83-6.25-9.52-2.5-6.7-3.62-14.51-.98-20.85,2.84-6.84,9.35-10.51,15.73-12.72s13.19-3.49,18.75-7.56c2.19-1.6,4.22-3.75,4.92-6.63,.83-3.4-.37-7.19-2.25-10.15-6.9-10.85-20.82-11.6-31.68-8.05-6.78,2.22-14.42,5.61-20.15-5.58-.27-.53-.45-1.13-.52-1.73-1.66-14.53,7.03-23.96,16.18-30.75,6.86-5.09,14.38-9.33,19.96-16.13,1.29-1.57,2.54-3.71,1.85-5.82-.37-1.14-1.25-2-2.17-2.63-10.82-7.4-25.56,10.11-35.31-2.66-.16-.21-.31-.43-.44-.66-5.58-9.53-3.43-21.66,2.24-29.84,6.4-9.23,25.51-17.39,28.36-20.34,9.21-9.64-8.87-7.37-13.79-11.4-2.72-2.23-3.63-6.56-2.89-10.15s2.82-6.55,5.08-9.11c11.3-12.84,28.91-19.96,31.77-39.35,1.62-10.02,2.73-12.66,13.05,6.04"/></g><path id="moon" class="cls-6" d="M100.45,86.3c-16.54,6.56-35.66-2.54-42.71-20.32-7.05-17.78,.65-37.51,17.19-44.07,9.5-3.77,19.85-2.36,28.28,2.88-11.87-12.35-28.68-17.45-43.46-11.59-20.59,8.16-29.47,34.49-19.83,58.8,9.64,24.31,34.14,37.4,54.73,29.24,13.32-5.28,21.73-18.17,23.4-33.19-3.06,8.16-9.18,14.91-17.59,18.24Z"/><g id="sparkles"><path class="cls-6" d="M193.99,73.3c2.84-.06,5.63,1.17,7.74,3.08s3.58,4.44,4.54,7.12c-.84-5.22,1.36-11.58,7.37-13.66-5.59,.67-10.74-6.97-11.85-12.31,.12,3.06-.04,6.22-1.33,8.99s-3.41,6.67-6.47,6.78"/><path class="cls-6" d="M112.67,124.52c2.48-.06,4.92,1.02,6.76,2.69s3.13,3.88,3.97,6.22c-.73-4.56,1.19-10.12,6.44-11.94-4.89,.59-9.39-6.09-10.35-10.76,.1,2.67-.03,5.43-1.16,7.86s-2.98,5.83-5.66,5.92"/><path class="cls-6" d="M128.48,54.49c3.17-.07,6.27,1.3,8.62,3.43s3.99,4.95,5.06,7.93c-.93-5.82,1.51-12.9,8.21-15.22-6.23,.75-11.97-7.76-13.2-13.71,.13,3.4-.04,6.93-1.48,10.01s-3.8,7.44-7.21,7.55"/></g><g id="rose"><g id="Stem"><path class="cls-3" d="M261.98,386.13c5.8,14.88,10.45,30.26,13.75,45.45,.59,2.7,1,6.01-.36,6.61-.86,.38-2.11-.64-3.04-2.04s-1.6-3.12-2.24-4.79c-6.17-16.1-11.88-32.94-13.78-48.89-.26-2.22-.11-4.95,1.31-4.4,.46,.18,.92,.69,1.36,1.23,1.39,1.74,2.14,4.5,3.01,6.84"/><path class="cls-3" d="M264.15,412.03c.03-5.28,.93-10.73,3.86-15.11s8.24-7.46,13.44-6.58c1.66,.28,3.47,1.18,3.82,2.83,.19,.9-.11,1.84-.6,2.62-1.52,2.42-4.55,3.31-6.91,4.93-4.87,3.35-6.66,9.96-5.73,15.8,.1,.63,.21,1.34-.15,1.87-.34,.5-.99,.66-1.59,.73-2.29,.24-6.15-1.64-6.15-7.07"/></g><g id="Flower"><path class="cls-8" d="M273.37,348.67c-.11-.45-.27-.94-.5-1.49-.21-.54-.42-1.02-.64-1.36,0,0,0,0,0,0-1.1-2.07-3.03-4.7-6.36-7.93-9.79-9.46-26.23-2.5-29.54,4.48-1.52,3.2-3.94,6.02-5.91,8.23-1.63,1.83-3.56,3.39-5.78,4.43-7.48,3.51-1.71,8.42-1.71,8.42,3.05,5.22,6.69,9.89,10.53,14.56,5.11,6.21,11.83,12.28,19.88,12.17,7.24-.1,13.61-5.43,16.9-11.88,3.3-6.44,4.06-13.85,4.48-21.08,.1-1.75-.51-5.66-1.36-8.56Z"/><path class="cls-5" d="M244.32,353.68c3.46,1.93,7.94,1.76,11.22-.51,3.59-2.49,5.89-8.09,1.62-11.15-6.84-4.91-17.89-1.75-19.53,6.92-.77,4.08,.57,8.18,4.01,10.64,3.18,2.27,7.38,2.41,11.07,1.59,7.84-1.74,15.64-8.62,15.58-17.11-.03-4.18-1.93-8.24-5.5-10.52s-8.58-2.44-12.81-1.76-8.21,2.52-11.57,5.12-5.62,6.03-7.92,9.56c-.98,1.51-1.99,2.99-3.26,4.27s-2.86,2.06-4.53,2.88c-1.89,.92-3.6,2.38-4.12,4.5s.31,4.4,1.69,6.12c2.99,3.73,7.79,4.37,12.28,4.14,2.3-.12,4.61-.37,6.91-.12,.98,.11,2.35,.32,3.48,.44,4.95,.53,10.16,.48,14.89-1.25,6.05-2.22,10.62-6.83,13.34-12.63,.9-1.92,1.65-3.92,2.26-5.95,.92-3.09-3.9-4.41-4.82-1.33s-2.05,5.79-3.77,8.36c-1.2,1.8-3.04,3.7-4.64,4.79-.9,.61-1.85,1.13-2.83,1.6-.35,.17,.07,0-.41,.18-.23,.09-.45,.17-.68,.25-.53,.19-1.06,.35-1.6,.5-.5,.13-1,.25-1.5,.35-.23,.05-.46,.09-.7,.13-.14,.02-.97,.14-.5,.08-1,.12-2.01,.19-3.01,.22-1.97,.05-3.95-.07-5.91-.27-.45-.05-.91-.1-1.36-.16-.2-.03-.41-.05-.61-.08-.44-.06,.36,.05-.23-.03-1.91-.26-3.77-.33-5.7-.22-3.22,.18-7.28,.91-10.06-1.2-.74-.56-1.83-1.73-1.68-2.59,.17-1.01,1.93-1.55,2.78-1.94,3.13-1.46,5.41-3.87,7.39-6.66,1.85-2.61,3.35-5.5,5.55-7.85,4.34-4.62,11.32-7.54,17.69-6.38,3,.54,5.35,2.17,6.17,5.19,.78,2.86,.02,5.74-1.64,8.14-3.09,4.44-9.94,8.04-15.34,6.32s-4.29-9.19,.46-11c1.28-.49,2.7-.64,4.06-.49,.78,.09,1.58,.31,2.31,.59,.43,.17,1.34,.46,1.6,.85,.44,.66-.53,1.85-1.04,2.33-.82,.8-1.99,1.3-3.07,1.47-1.21,.19-2.4-.02-3.47-.62-2.81-1.57-5.34,2.75-2.52,4.32h0Z"/></g></g></svg>